<svg id="Layer_1" enable-background="new 0 0 512 512" height="512" viewBox="0 0 512 512" width="512" xmlns="http://www.w3.org/2000/svg"><g><path d="m215.993 166h110.001c5.522 0 10-4.478 10-10s-4.478-10-10-10h-110.001c-5.522 0-10 4.478-10 10s4.478 10 10 10z"/><path d="m285.994 186h-70c-5.522 0-10 4.478-10 10s4.478 10 10 10h70c5.522 0 10-4.478 10-10s-4.477-10-10-10z"/><path d="m285.994 226h-70c-5.522 0-10 4.478-10 10s4.478 10 10 10h70c5.522 0 10-4.478 10-10s-4.477-10-10-10z"/><path d="m215.994 365.999h24.749c5.522 0 10-4.478 10-10s-4.478-10-10-10h-24.749c-5.522 0-10 4.478-10 10s4.478 10 10 10z"/><path d="m135.995 175.999c0 11.016 8.984 20 20 20 11.015 0 20-8.984 20-20 0-11.015-8.984-20-20-20s-20 8.985-20 20z"/><path d="m155.995 236c-11.016 0-20 8.985-20 20 0 11.016 8.984 20 20 20 11.015 0 20-8.984 20-20-.001-11.016-8.985-20-20-20z"/><path d="m155.995 316c-11.016 0-20 8.984-20 20s8.984 20 20 20c11.015 0 20-8.984 20-20-.001-11.015-8.985-20-20-20z"/><path d="m484.964 43.402c-2.078-7.755-7.034-14.227-13.953-18.221-6.92-3.995-15.002-5.05-22.757-2.972-1.04.279-2.055.613-3.046.993-3.089-13.276-15.01-23.202-29.214-23.202h-360c-16.542 0-30 13.458-30 30v452c0 16.542 13.458 30 30 30h360c16.542 0 30-13.458 30-30v-353.487l35.998-62.351c3.996-6.921 5.051-15.004 2.972-22.76zm-156.289 248.314-17.321-10 110.997-192.251 17.321 10zm-142.681-231.716h100v10c0 5.514-4.486 10-10 10h-80c-5.514 0-10-4.486-10-10zm10 40h80c16.542 0 30-13.458 30-30v-10h80v52.436l-88.66 153.563h-81.34c-5.522 0-10 4.478-10 10s4.478 10 10 10h69.793l-11.547 20h-58.246c-5.522 0-10 4.478-10 10s4.478 10 10 10h52.064l1.976 30.644c.215 3.337 2.084 6.345 4.979 8.017 1.544.892 3.271 1.34 5 1.34 1.516 0 3.033-.344 4.433-1.036l32.321-15.981c1.77-.875 3.24-2.254 4.228-3.964l64.999-112.582v219.563h-300v-392h80v10c0 16.542 13.458 30 30 30zm109.195 232.396-16.161 7.991-1.16-17.991 13.487-23.36 17.321 10zm110.805-312.396c5.514 0 10 4.486 10 10v13.155l-20 34.641v-27.796c0-5.522-4.478-10-10-10h-90v-20zm-130 0v20h-100v-20zm140 462c0 5.514-4.486 10-10 10h-360c-5.514 0-10-4.486-10-10v-452c0-5.514 4.486-10 10-10h110v20h-90c-5.522 0-10 4.478-10 10v412c0 5.522 4.478 10 10 10h320c5.522 0 10-4.478 10-10v-264.205l20-34.641zm38.678-425.838-15.001 25.982-17.32-10 15.001-25.982c1.324-2.293 3.482-3.938 6.078-4.634 2.599-.695 5.288-.35 7.582.974 4.775 2.757 6.417 8.885 3.66 13.66z"/></g></svg>